<svg xmlns="http://www.w3.org/2000/svg" width="256" height="256"><path fill-opacity=".016" d="M0 128.004v128.004l128.25-.254 128.25-.254.254-127.75L257.008 0H0v128.004m.485.496c0 70.4.119 99.053.265 63.672.146-35.38.146-92.98 0-128C.604 29.153.485 58.1.485 128.5" fill="#1976D2" fill-rule="evenodd"/><path fill-opacity=".139" d="M20.686 93.402c-15.629 15.949-17.455 18.194-18.32 22.517C2.027 117.613 1.356 119 .875 119 .394 119 0 123.05 0 128c0 5.333.407 9 1 9 .55 0 1 .9 1 2 0 2.969 1.869 2.422 2.564-.75 1.338-6.103 1.924-5.334 2.418 3.171.34 5.857.947 9.062 1.768 9.333.969.32 1.25-3.634 1.25-17.589 0-18.727.298-21.165 2.589-21.165 1.118 0 1.424 4.31 1.643 23.167.2 17.274.582 23.272 1.501 23.578.95.316 1.294-5.367 1.5-24.835.202-19.113.571-25.345 1.517-25.661.979-.325 1.258 5.408 1.285 26.418.029 21.377.326 27.341 1.465 29.333 1.263 2.209 1.433-1.069 1.465-28.143.03-26.294.248-30.725 1.535-31.219 1.315-.504 1.5 3.495 1.5 32.358 0 31.91.062 32.967 2 34.004 1.983 1.061 2 .76 2-34.358 0-30.444.209-35.508 1.488-35.999 1.299-.498 1.522 4.292 1.75 37.643.228 33.185.459 38.214 1.762 38.214 1.299 0 1.569-5.286 2.017-39.5.285-21.725.623-38.923.75-38.219.128.705 1.021 1.579 1.983 1.941 1.541.581 7.114 4.574 13.977 10.013 2.164 1.715 2.234 2.378 2.5 23.62l.273 21.855 3.75-3.538c2.063-1.946 3.75-3.836 3.75-4.2 0-.365.903-1.932 2.007-3.482 1.105-1.551 2.291-4.883 2.636-7.405.346-2.522 1.018-4.585 1.493-4.585 1.13 0 1.126-7.72-.004-8.419-.478-.295-1.166-2.777-1.529-5.516s-1.25-5.569-1.971-6.29c-.721-.721-1.495-1.838-1.721-2.482-.226-.645-5.586-6.513-11.911-13.04-6.325-6.527-12.625-13.286-14-15.018-1.375-1.733-2.95-3.101-3.5-3.041-.55.06-7.217 6.454-14.814 14.208m48.981 63.265c-.834.833-.884 16.604-.06 18.751.334.87 1.695 1.582 3.025 1.582 1.887 0 2.55-.659 3.018-3 .553-2.766.93-3 4.829-3 5.616 0 9.153-3.137 8.709-7.726-.476-4.931-4.478-7.274-12.426-7.274-3.536 0-6.729.3-7.095.667M92 166.5c0 10.29.046 10.5 2.3 10.5 2.931 0 4.7-1.769 4.7-4.7 0-3.594 3.465-2.901 6 1.2 1.405 2.274 2.923 3.495 4.332 3.485 2.872-.021 5.491-1.748 4.145-2.735-2.203-1.615-4.685-6.503-3.632-7.154.58-.359 1.472-1.765 1.982-3.124.785-2.097.462-2.89-2.131-5.222-2.746-2.471-3.798-2.75-10.376-2.75H92v10.5m26.004-8.357c-2.398 1.995-5.608 9.857-4.023 9.857.423 0 1.022 1.265 1.331 2.811.351 1.752 1.622 3.337 3.375 4.208 3.193 1.586 12.313 2.234 12.313.875 0-.491.623-.894 1.385-.894 2.322 0 4.615-4.677 4.615-9.414 0-3.91-.428-4.811-3.344-7.035-4.354-3.321-11.913-3.518-15.652-.408m22.196-.943c-.736.736-1.2 4.333-1.2 9.3 0 8.65.828 10.5 4.7 10.5 2.196 0 2.3-.341 2.3-7.5V162h7v5.918c0 3.255.273 6.63.607 7.5.756 1.97 4.063 2.055 5.964.153 1.823-1.822 2.007-16.593.229-18.371-.747-.747-4.444-1.2-9.8-1.2-5.356 0-9.053.453-9.8 1.2m25.57 1.815c-1.501 1.637-3.02 4.131-3.374 5.543-.775 3.089 2.271 9.486 4.854 10.195.963.264 1.75.799 1.75 1.188 0 .389 2.213.674 4.917.633 3.465-.052 5.827-.747 8-2.354 2.786-2.06 3.083-2.804 3.083-7.709 0-4.634-.402-5.803-2.74-7.971-2.253-2.088-3.719-2.537-8.25-2.521-4.822.017-5.851.39-8.24 2.996m26.527.235c-2.072 2.176-3.331 4.738-3.809 7.75-.393 2.475-1.168 5.063-1.724 5.75-1.412 1.75.857 4.25 3.858 4.25 1.711 0 2.378-.561 2.378-2 0-1.1.387-2 .859-2 .473 0 1.261-2.363 1.75-5.25.739-4.355 1.274-5.304 3.141-5.57 2.131-.302 2.25.017 2.25 6.05 0 6.853 1.028 8.77 4.7 8.77 2.254 0 2.3-.21 2.3-10.5V156h-6.304c-5.81 0-6.546.254-9.399 3.25M212 166.563v10.564l3.16-.314c2.484-.246 3.86-1.331 6.433-5.075 3.383-4.922 4.606-4.929 4.232-.022-.288 3.776.778 5.284 3.734 5.284 2.433 0 2.441-.034 2.441-10.5V156h-2.954c-2.339 0-3.693.967-6.5 4.644L219 165.288v-4.037c0-4.148-1.068-5.251-5.082-5.251-1.77 0-1.918.817-1.918 10.563m26.25-7.508c-2.638 2.473-3.25 3.815-3.25 7.128 0 3.346.612 4.658 3.403 7.29 2.888 2.724 4.173 3.217 8.5 3.261 2.803.028 5.097-.35 5.097-.841s.627-.893 1.393-.893c1.529 0 2.607-2.101 2.607-5.082 0-1.449-.708-1.918-2.893-1.918-1.649 0-3.141.645-3.469 1.5-.33.86-1.822 1.5-3.498 1.5-2.31 0-3.059-.543-3.572-2.585-1.1-4.381.15-6.415 3.94-6.415 1.856 0 3.652.45 3.992 1 1.128 1.825 5.5 1.168 5.5-.826 0-3.469-4.194-6.174-9.564-6.169-4.12.003-5.474.508-8.186 3.05M76 164c0 1.797.504 2.078 3.25 1.813 2.083-.2 3.25-.852 3.25-1.813s-1.167-1.613-3.25-1.813c-2.746-.265-3.25.016-3.25 1.813m23-1c0 .55 1.125 1 2.5 1s2.5-.45 2.5-1-1.125-1-2.5-1-2.5.45-2.5 1m23 3.031c0 4.449 1.38 5.592 5.502 4.558 2.047-.514 2.498-1.237 2.498-4.001 0-3.564-1.246-4.588-5.582-4.588-2.158 0-2.418.434-2.418 4.031m48-.11c0 3.475.35 4.129 2.498 4.668 4.21 1.057 5.661-.126 5.313-4.331-.294-3.556-.513-3.775-4.061-4.068l-3.75-.311v4.042" fill="#1976D2" fill-rule="evenodd"/><path fill-opacity=".125" d="M20.654 93.929C7.373 107.309 2 114.375 2 118.46c0 .847-.45 1.54-1 1.54-.583 0-1 3.333-1 8 0 4.4.419 8 .93 8 .512 0 1.126 1.012 1.364 2.25.4 2.076.444 2.053.57-.3C2.998 135.435 4.64 133 6.2 133c.44 0 .8 3.545.8 7.878 0 5.782.399 8.208 1.5 9.122 1.324 1.099 1.5-.971 1.5-17.678 0-18.28.454-21.322 3.182-21.322.429 0 .902 10.351 1.05 23.001.147 12.651.636 22.888 1.086 22.75.449-.138.772-10.667.717-23.397-.086-19.995.119-23.365 1.504-24.75.882-.882 2.022-1.604 2.532-1.604.55 0 .929 11.606.929 28.441 0 17.882.371 28.67 1 29.059.658.407 1-9.787 1-29.834 0-25.202.242-30.545 1.402-30.99.771-.296 1.671-.269 2 .06.329.328.598 15.061.598 32.74 0 26.713.248 32.47 1.468 34.083 1.3 1.719 1.472-2.141 1.5-33.687.026-28.555.298-35.848 1.374-36.741.738-.612 1.638-.818 2-.456.362.362.658 17.721.658 38.575 0 29.889.265 37.829 1.25 37.5.96-.319 1.366-9.401 1.75-39.093l.5-38.677 9 6.76 9 6.76.5 22.4.5 22.4 3.865-4.28c6.301-6.978 8.935-13.911 8.935-23.52 0-12.672-2.197-16.503-19.71-34.375L35.118 79.358 20.654 93.929m99.675 63.529c-3.882 1.688-5.339 4.226-5.297 9.226.05 6.038 3.728 9.316 10.452 9.316 5.415 0 9.258-2.405 10.389-6.502 1.487-5.387-.151-9.783-4.402-11.811-4.235-2.019-6.901-2.074-11.142-.229m47.942.277c-5.55 2.764-6.788 11.677-2.199 15.83 1.161 1.051 4.111 1.952 7.24 2.211 4.622.383 5.68.102 8.484-2.258 2.666-2.243 3.204-3.399 3.204-6.884 0-5.338-2.084-8.285-6.779-9.59-4.812-1.336-6.051-1.25-9.95.691m72.988-.248c-3.838 1.669-6.825 7.121-5.907 10.781.343 1.364 1.489 3.549 2.547 4.856 1.678 2.072 2.779 2.376 8.593 2.376 5.448 0 6.929-.356 8.089-1.941 2.248-3.075 1.733-4.559-1.581-4.559-1.65 0-3 .42-3 .933 0 1.516-3.77 2.261-5.84 1.153-2.496-1.336-3.252-5.51-1.461-8.067 1.664-2.375 5.532-2.651 7.301-.519 1.421 1.712 6 2.043 6 .434 0-2.363-2.129-4.783-5.128-5.829-4.053-1.413-5.628-1.35-9.613.382m-171.509.089c-.412.416-.75 4.459-.75 8.984 0 6.703.304 8.343 1.641 8.856 2.472.948 5.359-.319 5.359-2.353 0-1.407 1.035-1.92 4.711-2.334 7.139-.805 10.503-6.319 6.878-11.276-1.14-1.559-2.917-1.998-9.25-2.282-4.311-.194-8.177-.012-8.589.405m22.462 8.674c.284 9.123.322 9.25 2.788 9.25 1.911 0 2.579-.589 2.835-2.5.184-1.375.701-2.882 1.149-3.349 1.383-1.442 4.496.198 6.356 3.348 1.233 2.088 2.55 3.001 4.325 3.001 2.281 0 2.48-.292 1.878-2.75-.371-1.512-1.272-3.361-2.002-4.107-1.104-1.13-1.022-1.662.492-3.176 1.121-1.121 1.608-2.626 1.268-3.923-.966-3.694-4.193-5.044-12.061-5.044h-7.315l.287 9.25m48.226-7.949c-.29.757-.395 4.936-.233 9.287.287 7.694.364 7.912 2.795 7.912 2.412 0 2.51-.258 2.795-7.308l.295-7.307 3.705.307 3.705.308.5 7c.476 6.667.619 7 3 7 2.481 0 2.5-.067 2.5-9v-9l-9.267-.288c-7.145-.222-9.388.028-9.795 1.089m52.086 1.084c-2.357 2.357-4.131 7.286-4.721 13.115-.262 2.597.025 3 2.137 3 2.115 0 2.676-.79 4.195-5.909 3.352-11.291 7.594-11.759 8.068-.89.284 6.506.405 6.799 2.797 6.799 2.466 0 2.504-.127 2.788-9.25l.287-9.25h-6.583c-5.604 0-6.938.355-8.968 2.385M212 165.941c0 5.203.442 9.214 1.057 9.594 2.174 1.344 6.025-.701 8.574-4.554 1.449-2.189 2.999-3.981 3.444-3.981.446 0 .948 1.912 1.118 4.25.273 3.785.581 4.25 2.807 4.25 2.466 0 2.504-.127 2.788-9.25l.287-9.25h-3.006c-2.401 0-3.665.897-6.287 4.461-1.805 2.454-3.62 4.479-4.032 4.5-.412.021-.75-1.986-.75-4.461 0-4.333-.111-4.5-3-4.5h-3v8.941m-136-2.504c0 2.272.405 2.563 3.57 2.563 3.129 0 3.53-.277 3.25-2.25-.245-1.725-1.079-2.323-3.57-2.563-2.903-.28-3.25-.04-3.25 2.25M98 163c0 1.797.504 2.078 3.25 1.813 2.083-.2 3.25-.852 3.25-1.813s-1.167-1.613-3.25-1.813c-2.746-.265-3.25.016-3.25 1.813m24.2-.8c-1.699 1.699-1.488 6.369.371 8.229 1.843 1.842 2.867 1.942 5.495.536 2.493-1.335 2.761-8.434.352-9.358-2.474-.949-4.908-.717-6.218.593m47.75.893c-1.569 2.932-.35 6.768 2.574 8.1 2.029.924 2.824.802 4.472-.689 2.226-2.015 2.655-6.453.804-8.304-1.977-1.977-6.595-1.451-7.85.893" fill="#1976D2" fill-rule="evenodd"/><path fill-opacity=".323" d="M20.744 94.385C7.478 107.484 2 114.943 2 119.908c0 1.086-.45 2.252-1 2.592-.55.34-1 2.841-1 5.559S.45 133 1 133s1.053 1.463 1.118 3.25l.119 3.25.638-3c.446-2.1 1.311-3.096 2.881-3.32 2.165-.308 2.244-.037 2.244 7.691 0 4.406.45 8.289 1 8.629.653.404 1-5.923 1-18.241 0-18.247.453-21.259 3.2-21.259.44 0 .8 10.323.8 22.941 0 14.215.38 23.176 1 23.559.656.406 1-7.703 1-23.581 0-21.873.168-24.326 1.75-25.527.962-.731 2.087-1.343 2.5-1.36.413-.018.75 12.766.75 28.409 0 17.882.371 28.67 1 29.059.658.407 1-9.615 1-29.319 0-24.99.241-30.136 1.456-31.145.801-.664 1.926-.918 2.5-.563C27.648 102.9 28 114.39 28 136.5c0 21.176.366 33.608 1 34 .659.408 1-11.478 1-34.906 0-34.5.058-35.554 2-36.594 1.984-1.062 2-.76 2 37.965 0 25.357.35 39.035 1 39.035s1-13.667 1-39c0-28.427.308-39 1.135-39 .624 0 5.116 2.964 9.981 6.586l8.846 6.587.269 21.973.269 21.974 3.22-3.15c8.579-8.39 11.624-23.333 7.184-35.25-2.024-5.432-4.097-8.056-16.361-20.72-7.724-7.975-14.521-14.629-15.105-14.787-.584-.158-7.196 5.77-14.694 13.172m49.923 63.282c-.367.366-.667 4.416-.667 9 0 8.158.051 8.333 2.43 8.333 1.76 0 2.519-.621 2.75-2.25.253-1.775 1.059-2.31 3.82-2.536 5.509-.45 8.764-2.138 9.459-4.905.938-3.738-1.603-6.906-6.139-7.656-5.019-.829-10.817-.822-11.653.014m22.254-.051c-.043.486-.08 4.484-.082 8.884-.003 7.338.169 8.026 2.079 8.32 1.727.265 2.082-.205 2.082-2.75 0-2.856.25-3.07 3.587-3.07 3.067 0 3.751.435 4.719 3 .884 2.343 1.742 3 3.913 3 3.334 0 3.464-.861.67-4.414-1.95-2.479-1.988-2.819-.5-4.463 4.136-4.571.317-8.196-9.363-8.889-3.864-.277-7.061-.105-7.105.382m25.002 2.307c-3.686 3.686-3.894 8.351-.557 12.521 2.101 2.626 2.976 2.951 8.08 3 5.066.05 6.001-.267 8.139-2.75 4.034-4.686 3.216-11.711-1.657-14.231-4.845-2.506-10.644-1.901-14.005 1.46M141 166c0 8.933.019 9 2.5 9 2.429 0 2.5-.2 2.5-7v-7h8v7c0 6.8.071 7 2.5 7 2.481 0 2.5-.067 2.5-9v-9h-18v9m27.315-8.047c-4.813 2.059-6.038 11.08-2.017 14.857 9.52 8.944 24.043-2.758 15.901-12.812-2.047-2.528-10.013-3.701-13.884-2.045m27.043.115c-3.421 1.016-5.762 5.353-6.972 12.917-.605 3.786-.499 4.015 1.856 4.015 2.246 0 2.613-.586 3.642-5.814 1.323-6.727 2.449-8.186 6.316-8.186 2.8 0 2.8 0 2.8 7 0 6.829.062 7 2.539 7h2.539l-.289-8.75-.289-8.75-4.5-.183c-2.475-.1-5.914.237-7.642.751m17.064.276c-.284.739-.382 4.676-.219 8.75l.297 7.406 3 .258c2.6.223 3.45-.41 6.374-4.75 1.856-2.754 3.769-5.008 4.25-5.008.482 0 .876 2.25.876 5 0 4.667.167 5 2.5 5 2.469 0 2.5-.104 2.5-8.441 0-4.851-.449-8.719-1.057-9.094-2.19-1.354-5.544.626-8.443 4.983-3.992 6-5.5 5.877-5.5-.448 0-4.359-.26-5-2.031-5-1.118 0-2.264.605-2.547 1.344m27.899-.155c-4.781 2.311-5.495 11.535-1.194 15.424 3.2 2.893 12.5 2.566 15.006-.529 1.027-1.268 1.867-2.706 1.867-3.195 0-1.606-4.133-.93-6.71 1.098-2.412 1.897-2.656 1.91-5.408.284-5.53-3.266-2.523-12.402 3.578-10.87 1.397.35 2.54 1.079 2.54 1.618 0 .54 1.125.981 2.5.981 3.14 0 3.286-2.336.277-4.443-2.508-1.757-9.175-1.954-12.456-.368m-118.764 4.034c-2.272 3.243-1.909 6.355 1.007 8.649 3.96 3.114 8.436.51 8.436-4.908 0-5.371-6.499-7.946-9.443-3.741m49.014-.652c-.864.865-1.571 3.089-1.571 4.944 0 6.325 6.847 8.001 9.728 2.381 2.954-5.762-3.724-11.757-8.157-7.325M75 163.531c0 2.902 1.905 3.961 5.502 3.058 1.824-.458 2.498-1.296 2.498-3.108 0-2.228-.408-2.481-4-2.481-3.613 0-4 .245-4 2.531M97 163c0 1.87.493 2.079 4.25 1.807 2.974-.215 4.25-.757 4.25-1.807 0-1.05-1.276-1.592-4.25-1.807-3.757-.272-4.25-.063-4.25 1.807" fill="#1976D2" fill-rule="evenodd"/></svg>