<svg xmlns="http://www.w3.org/2000/svg" width="256" height="256"><path fill-opacity=".016" d="M0 128.004v128.004l128.25-.254 128.25-.254.254-127.75L257.008 0H0v128.004m.485.496c0 70.4.119 99.053.265 63.672.146-35.38.146-92.98 0-128C.604 29.153.485 58.1.485 128.5" fill="#1976D2" fill-rule="evenodd"/><path fill-opacity=".275" d="M90.362 37.376C57.575 70.15 52.691 75.437 48.681 82.5c-9.084 15.997-12.08 27.276-12.084 45.5-.002 8.113.56 14.781 1.602 19 1.985 8.043 4.726 15 5.91 15 .49 0 .891-3.832.891-8.515v-8.514l3.25-1.982c6.834-4.167 6.75-4.402 6.75 18.934v20.924l2.589 3.076c1.424 1.692 2.999 3.077 3.5 3.077.536 0 .914-20.89.919-50.75l.007-50.75 4.017-2.294c2.209-1.262 4.456-2.023 4.992-1.691.617.381.976 22.247.976 59.357v58.754l3 2.874 3 2.874.015-63.937c.009-35.165.346-64.411.75-64.99C79.768 77.01 86.469 73 87.868 73 88.7 73 89 92.279 89 145.813v72.813l2.805 2.687c1.542 1.478 3.342 2.687 4 2.687.917 0 1.195-18.387 1.195-78.964V66.072l3.732-2.536c2.053-1.395 4.078-2.536 4.5-2.536.422 0 .768 39.284.768 87.297v87.297l4 3.906 4 3.906V57.013l4.125-2.989c2.269-1.643 4.519-2.744 5-2.447.491.304.875 44.821.875 101.36 0 88.95.179 100.966 1.519 102.079 1.243 1.031 1.878.934 3.5-.533 1.95-1.765 1.981-3.384 1.981-103.638C131 75.367 131.295 49 132.138 49c.626 0 4.339 2.403 8.25 5.339 6.991 5.248 22.946 16.955 31.424 23.057 2.372 1.707 5.631 4.153 7.242 5.436l2.93 2.332.258 58.668.258 58.668 7.048-7c22.261-22.109 31.82-48.396 28.045-77.118-1.497-11.394-5.508-24.075-10.197-32.246-5.721-9.967-14.561-19.878-46.614-52.26L127.5.252 90.362 37.376" fill="#1976D2" fill-rule="evenodd"/><path fill-opacity=".192" d="M125.405 3.288c-.603.667-16.406 16.287-35.119 34.712-33.232 32.721-38.669 38.896-44.635 50.693C42.589 94.747 38 109.957 38 114.053c0 1.556-.45 3.107-1 3.447-1.217.752-1.35 19.166-.143 19.912.471.291 1.118 2.905 1.437 5.809.319 2.903 1.62 8.429 2.893 12.279l2.313 7 .5-8.973.5-8.973 4-2.26c2.2-1.244 4.563-2.269 5.25-2.278.96-.012 1.25 4.781 1.25 20.68v20.696l2.75 3.969 2.75 3.969.259-50.693.259-50.693 4.637-2.94c2.551-1.618 5.022-2.704 5.491-2.414.47.291.868 26.939.886 59.219l.031 58.691 2.421 2.75c1.331 1.513 2.663 2.75 2.961 2.75.297 0 .656-28.893.798-64.207l.257-64.208 4.681-2.894c2.575-1.592 5.163-2.597 5.75-2.233.743.458 1.069 22.888 1.069 73.465v72.804l2.75 2.751 2.75 2.75.5-79.195c.491-77.731.537-79.222 2.5-80.69 1.1-.823 3.237-2.148 4.75-2.945l2.75-1.449V234.93l3.104 3.535c1.707 1.944 3.507 3.535 4 3.535.522 0 .896-38.777.896-92.867V56.266l3.979-2.633c2.188-1.448 4.438-2.633 5-2.633.688 0 1.021 33.041 1.021 101.378 0 92.091.148 101.5 1.615 102.717 1.384 1.149 1.883 1.008 3.5-.988 1.819-2.247 1.885-5.883 1.885-104.218 0-56.039.338-101.88.75-101.87.734.019 8.325 5.488 37 26.659L183 85.198v116.244l6.534-6.471c12.076-11.959 19.254-23.509 24.526-39.471 3.186-9.643 3.304-10.572 3.297-26-.006-14.771-.219-16.653-2.782-24.5-3.863-11.834-7.494-19.288-13.581-27.88-5.432-7.667-71.392-75.151-73.387-75.082-.609.021-1.6.583-2.202 1.25" fill="#1976D2" fill-rule="evenodd"/><path fill-opacity=".15" d="M91.243 37.834C71.427 57.45 53.923 75.525 52.346 78c-7.923 12.437-12.583 24.753-13.915 36.772-.382 3.45-1.085 6.514-1.563 6.809-1.156.715-1.118 11.759.045 12.969.501.523 1.129 3.2 1.394 5.95.471 4.892 4.131 19.271 5.169 20.309.288.288.524-3.398.524-8.191v-8.716l4.25-1.929c2.337-1.061 4.813-1.939 5.5-1.951.961-.017 1.25 4.791 1.25 20.766v20.788l2.959 3.462 2.96 3.462.04-50.733L61 87.034l5.037-2.553c2.771-1.404 5.471-2.285 6-1.958.6.37.963 22.975.963 59.881 0 58.016.043 59.325 2 61.096 1.1.995 2.007 1.403 2.015.905.008-.498.001-28.911-.015-63.141-.029-61.928-.018-62.246 2.073-64.337 2.05-2.05 7.828-4.927 9.895-4.927.7 0 1.032 23.443 1.032 72.865 0 72.202.019 72.889 2.073 75.5 1.139 1.449 2.487 2.635 2.994 2.635.551 0 1.024-31.564 1.177-78.703l.256-78.702 4.151-2.918c2.283-1.604 4.646-2.612 5.25-2.238.785.485 1.099 25.582 1.099 87.815v87.137l2.687 2.804c1.478 1.543 2.94 2.805 3.25 2.805.31 0 .434-40.387.276-89.75-.158-49.362-.046-91.103.25-92.757.39-2.189 1.695-3.707 4.796-5.58 2.343-1.415 4.818-2.387 5.501-2.16.976.326 1.24 21.991 1.24 101.771 0 69.329.33 101.562 1.044 102.003.574.355 1.699.101 2.5-.563 1.257-1.044 1.456-15.173 1.456-103.586 0-116.917-1.103-105.86 9.736-97.619 3.429 2.608 7.476 5.641 8.992 6.741 12.178 8.835 23.023 16.791 24.272 17.809.825.672 3.4 2.564 5.723 4.206l4.222 2.985.278 58 .277 58 6.338-6.5c3.486-3.575 8.045-8.75 10.133-11.5 5.021-6.616 11.513-19.539 13.562-27 .907-3.3 2.017-6.944 2.467-8.097 2.551-6.54 2.022-28.235-.95-38.903-.613-2.2-1.351-5.125-1.641-6.5-.992-4.709-8.147-18.498-13.029-25.11-4.682-6.341-69.65-73.396-71.977-74.289-.621-.238-17.343 15.617-37.16 35.233" fill="#1976D2" fill-rule="evenodd"/></svg>